# AST/ASF file generated using VICON BodyLanguage
# -----------------------------------------------
:version 1.10
:name VICON
:units
  mass 1.0
  length 0.45
  angle deg
:documentation
   .ast/.asf automatically generated from VICON data using
   VICON BodyBuilder and BodyLanguage model FoxedUp or BRILLIANT.MOD
:root
   order TX TY TZ RX RY RZ
   axis XYZ
   position 0 0 0  
   orientation 0 0 0 
:bonedata
  begin
     id 1 
     name lhipjoint
     direction 0.522423 -0.726805 0.445902 
     length 2.25074 
     axis 0 0 0  XYZ
  end
  begin
     id 2 
     name lfemur
     direction 0.34202 -0.939693 0  
     length 6.54609  
     axis 0 0 20  XYZ
    dof rx ry rz
    limits (-160.0 20.0)
           (-70.0 70.0)
           (-60.0 70.0)
  end
  begin
     id 3 
     name ltibia
     direction 0.34202 -0.939693 0   
     length 7.7528   
     axis 0 0 20   XYZ
    dof rx
    limits (-10.0 170.0)
  end
  begin
     id 4 
     name lfoot
     direction 0.143696 -0.394801 0.90746   
     length 1.73269   
     axis -90 7.62852e-016 20   XYZ
    dof rx rz
    limits (-45.0 90.0)
           (-70.0 20.0)
  end
  begin
     id 5 
     name ltoes
     direction 1.53633e-011 -4.21912e-011 1   
     length 0.858383   
     axis -90 7.62852e-016 20   XYZ
    dof rx
    limits (-90.0 20.0)
  end
  begin
     id 6 
     name rhipjoint
     direction -0.515943 -0.73016 0.447961   
     length 2.2404  
     axis 0 0 0  XYZ 
  end
  begin
     id 7 
     name rfemur
     direction -0.34202 -0.939693 0   
     length 6.84377   
     axis 0 0 -20   XYZ
    dof rx ry rz
    limits (-160.0 20.0)
           (-70.0 70.0)
           (-70.0 60.0)
  end
  begin
     id 8 
     name rtibia
     direction -0.34202 -0.939693 0   
     length 7.57596   
     axis 0 0 -20   XYZ
    dof rx
    limits (-10.0 170.0)
 end
 begin
     id 9 
     name rfoot
     direction -0.0999372 -0.274575 0.956358   
     length 1.78783  
     axis -90 -7.62852e-016 -20   XYZ
    dof rx rz
    limits (-45.0 90.0)
           (-20.0 70.0)
  end
  begin
     id 10 
     name rtoes
     direction -1.53535e-011 -4.21895e-011 1   
     length 0.898614   
     axis -90 -7.62852e-016 -20   XYZ
    dof rx
    limits (-90.0 20.0)
  end
  begin
     id 11 
     name lowerback
     direction -0.011775 0.996164 -0.0867116   
     length 1.91499   
     axis 0 0 0   XYZ
    dof rx ry rz
    limits (-20.0 45.0)
           (-30.0 30.0)
           (-30.0 30.0)
  end
  begin
     id 12 
     name upperback
     direction -0.00189771 0.999673 -0.0254833   
     length 1.92213   
     axis 0 0 0   XYZ
    dof rx ry rz
    limits (-20.0 45.0)
           (-30.0 30.0)
           (-30.0 30.0)
  end
  begin
     id 13 
     name thorax
     direction 0.00335995 0.999878 0.0152401   
     length 1.93138   
     axis 0 0 0   XYZ
    dof rx ry rz
    limits (-20.0 45.0)
           (-30.0 30.0)
           (-30.0 30.0)
  end
  begin
     id 14 
     name lowerneck
     direction 0.00233191 0.998509 0.0545404   
     length 1.59408   
     axis 0 0 0   XYZ
    dof rx ry rz
    limits (-20.0 45.0)
           (-30.0 30.0)
           (-30.0 30.0)
  end
  begin
     id 15 
     name upperneck
     direction 0.07881 0.9956 -0.0506934   
     length 1.59344   
     axis 0 0 0   XYZ
    dof rx ry rz
    limits (-20.0 45.0)
           (-30.0 30.0)
           (-30.0 30.0)
  end
  begin
     id 16
     name head
     direction 0.0261681 0.999378 -0.0236299  
     length 1.60935  
     axis 0 0 0   XYZ
    dof rx ry rz
    limits (-20.0 45.0)
           (-30.0 30.0)
           (-30.0 30.0)
  end
  begin
     id 17 
     name lclavicle
     direction 0.96643 0.252035 0.0499195  
     length 3.82153  
     axis 0 0 0   XYZ
    dof ry rz
    limits (-20.0 10.0)
           (0.0 20.0)
  end
  begin
     id 18 
     name lhumerus
     direction 1 -4.48967e-011 -2.01614e-018   
     length 4.87796   
     axis 180 -30 -90   XYZ
    dof rx ry rz
    limits (-60.0 90.0)
           (-90.0 90.0)
           (-90.0 90.0)
  end
  begin
     id 19
     name lradius
     direction 1 -4.48958e-011 3.1409e-027   
     length 3.23169   
     axis 180 -30 -90   XYZ
    dof rx
    limits (-10.0 170.0)
  end
  begin
     id 20
     name lwrist
     direction 1 -4.48924e-011 1.0365e-027   
     length 1.61584   
     axis -2.56395e-016 90 90   XYZ
    dof ry
    limits (-180.0 0.0)
 end
  begin
     id 21 
     name lhand
     direction 1 -4.49055e-011 2.09488e-027   
     length 0.731324   
     axis -1.32723e-015 90 90   XYZ
    dof rx rz
    limits (-90.0 90.0)
           (-45.0 45.0)
  end
  begin
     id 22 
     name lfingers
     direction 1 -4.48935e-011 4.14981e-027   
     length 0.589612   
     axis -2.6545e-015 90 90   XYZ
    dof rx
    limits (0.0 90.0)
  end
  begin
     id 23
     name lthumb
     direction 0.707107 -6.35097e-011 0.707107   
     length 0.846569   
     axis -90 45 5.05613e-014   XYZ
    dof rx rz
    limits (-45.0 45.0)
           (-45.0 45.0)
  end
  begin
     id 24 
     name rclavicle
     direction -0.979337 0.201016 0.0221522   
     length 3.73827  
     axis 0 0 0   XYZ 
    dof ry rz
    limits (-10.0 20.0)
           (-20.0 0.0)
  end
  begin
     id 25 
     name rhumerus
     direction -1 -4.48971e-011 1.65907e-027  
     length 4.9143   
     axis 180 30 90   XYZ
    dof rx ry rz
    limits (-90.0 60.0)
           (-90.0 90.0)
           (-90.0 90.0)
  end
  begin
     id 26 
     name rradius
     direction -1 -4.4894e-011 2.17871e-028   
     length 3.29093   
     axis 180 30 90   XYZ
    dof rx
    limits (-10.0 170.0)
  end
  begin
     id 27 
     name rwrist
     direction -1 -4.48971e-011 1.04038e-027   
     length 1.64546   
     axis -2.56395e-016 -90 -90   XYZ
    dof ry
    limits (-180.0 0.0)
  end
  begin
     id 28
     name rhand
     direction -1 -4.49017e-011 2.08843e-027   
     length 0.54512   
     axis -1.32723e-015 -90 -90   XYZ
    dof rx rz
    limits (-90.0 90.0)
           (-45.0 45.0)
  end
  begin
     id 29
     name rfingers
     direction -1 -4.48918e-011 4.1439e-027   
     length 0.43949   
     axis -2.6545e-015 -90 -90   XYZ
    dof rx
    limits (0.0 90.0)
  end
  begin
     id 30
     name rthumb
     direction -0.707107 -6.35065e-011 0.707107   
     length 0.631022   
     axis -90 -45 -5.05613e-014   XYZ
    dof rx rz
    limits (-45.0 45.0)
           (-45.0 45.0)
  end
:hierarchy
  begin
    root lhipjoint rhipjoint lowerback
    lhipjoint lfemur
    lfemur ltibia
    ltibia lfoot
    lfoot ltoes
    rhipjoint rfemur
    rfemur rtibia
    rtibia rfoot
    rfoot rtoes
    lowerback upperback
    upperback thorax
    thorax lowerneck lclavicle rclavicle
    lowerneck upperneck
    upperneck head
    lclavicle lhumerus
    lhumerus lradius
    lradius lwrist
    lwrist lhand lthumb
    lhand lfingers
    rclavicle rhumerus
    rhumerus rradius
    rradius rwrist
    rwrist rhand rthumb
    rhand rfingers
  end

#!OML:ASF H:\BreakDance\Project 1\Capture day 1\Session 1\Male.ASF
:FULLY-SPECIFIED
:DEGREES
282
root 12.4082 16.1346 1.46831 -174.684 -88.6351 174.387
lowerback -9.30899 1.29775 1.26751
upperback 3.39666 1.77973 -2.76589
thorax 8.98647 1.01635 -3.36416
lowerneck -1.55874 -1.17015 3.45857
upperneck 20.1597 -3.06428 3.07268
head 6.386 -1.24882 0.19132
rclavicle 1.14301e-015 1.27222e-014
rhumerus -27.1257 5.70122 -90.7754
rradius 52.7321
rwrist 20.2794
rhand -26.3209 -34.3037
rfingers 7.12502
rthumb 0.235821 -64.2833
lclavicle 1.14301e-015 1.27222e-014
lhumerus -24.5188 -11.3415 83.4747
lradius 51.1067
lwrist -12.6274
lhand -22.0518 -30.1629
lfingers 7.12502
lthumb 4.35879 -0.227787
rfemur -13.9118 3.4711 12.7892
rtibia 41.6022
rfoot -33.7517 -11.9126
rtoes 22.8491
lfemur -13.3881 3.00901 -10.8173
ltibia 37.9933
lfoot -27.7384 16.5394
ltoes -30.4462
283
root 12.4075 16.1349 1.46876 -174.382 -88.6235 174.094
lowerback -9.31558 1.3126 1.27358
upperback 3.39014 1.79988 -2.78083
thorax 8.98552 1.02684 -3.38009
lowerneck -1.55212 -1.18019 3.44992
upperneck 20.176 -3.08489 3.10271
head 6.39077 -1.25746 0.201064
rclavicle 1.35174e-014 -2.70347e-014
rhumerus -27.157 5.67224 -90.784
rradius 52.7423
rwrist 20.3033
rhand -26.3128 -34.2696
rfingers 7.12502
rthumb 0.24362 -64.2492
lclavicle 1.35174e-014 -2.70347e-014
lhumerus -24.541 -11.369 83.4613
lradius 51.119
lwrist -12.6547
lhand -22.0687 -30.201
lfingers 7.12502
lthumb 4.34248 -0.265523
rfemur -13.9236 3.46728 12.7713
rtibia 41.6094
rfoot -33.7293 -11.8536
rtoes 23.077
lfemur -13.3861 3.01455 -10.8299
ltibia 37.977
lfoot -27.733 16.5395
ltoes -30.4863
284
root 12.4073 16.1358 1.46894 -174.779 -88.6142 174.498
lowerback -9.30979 1.32514 1.28915
upperback 3.37804 1.8151 -2.78787
thorax 8.9709 1.03509 -3.39386
lowerneck -1.53623 -1.18318 3.43525
upperneck 20.1923 -3.09654 3.13999
head 6.39409 -1.26192 0.214733
rclavicle -8.74653e-015 2.22639e-014
rhumerus -27.1933 5.6465 -90.7901
rradius 52.7492
rwrist 20.3453
rhand -26.2874 -34.2365
rfingers 7.12502
rthumb 0.268187 -64.2161
lclavicle -8.74653e-015 2.22639e-014
lhumerus -24.5728 -11.3818 83.4497
lradius 51.1231
lwrist -12.7146
lhand -22.0673 -30.2274
lfingers 7.12502
lthumb 4.34382 -0.291979
rfemur -13.9267 3.51067 12.7758
rtibia 41.6192
rfoot -33.7619 -11.7567
rtoes 23.3468
lfemur -13.3819 3.02141 -10.8221
ltibia 37.9592
lfoot -27.7212 16.5397
ltoes -30.52
285
root 12.4075 16.1366 1.46885 -175.471 -88.6077 175.193
lowerback -9.29234 1.33524 1.30804
upperback 3.36323 1.82635 -2.79163
thorax 8.94619 1.04138 -3.40679
lowerneck -1.51519 -1.18072 3.41871
upperneck 20.2055 -3.10055 3.17941
head 6.3956 -1.26282 0.229918
rclavicle -2.68359e-015 -1.03368e-014
rhumerus -27.2263 5.61985 -90.7964
rradius 52.7483
rwrist 20.3907
rhand -26.2454 -34.2054
rfingers 7.12502
rthumb 0.308716 -64.1849
lclavicle -2.68359e-015 -1.03368e-014
lhumerus -24.6069 -11.3849 83.4381
lradius 51.1167
lwrist -12.7921
lhand -22.0487 -30.2354
lfingers 7.12502
lthumb 4.36177 -0.300293
rfemur -13.9234 3.57887 12.7926
rtibia 41.6304
rfoot -33.8311 -11.6625
rtoes 23.5238
lfemur -13.3756 3.02874 -10.8046
ltibia 37.9438
lfoot -27.7007 16.5412
ltoes -30.5401
286
root 12.4078 16.1373 1.46868 -175.878 -88.6025 175.602
lowerback -9.27093 1.34118 1.31559
upperback 3.35356 1.83337 -2.79409
thorax 8.92401 1.04497 -3.41269
lowerneck -1.50851 -1.17326 3.40541
upperneck 20.2155 -3.09636 3.2114
head 6.39837 -1.25966 0.242563
rclavicle 5.71506e-015 -2.46493e-014
rhumerus -27.2382 5.59981 -90.8011
rradius 52.7377
rwrist 20.4204
rhand -26.1946 -34.191
rfingers 7.12502
rthumb 0.357764 -64.1704
lclavicle 5.71506e-015 -2.46493e-014
lhumerus -24.6252 -11.377 83.4274
lradius 51.1003
lwrist -12.8653
lhand -22.0132 -30.2175
lfingers 7.12502
lthumb 4.39603 -0.283086
rfemur -13.9204 3.63922 12.8038
rtibia 41.6402
rfoot -33.8939 -11.5989
rtoes 23.5416
lfemur -13.3711 3.0379 -10.7942
ltibia 37.9358
lfoot -27.6726 16.5479
ltoes -30.5575
287
root 12.4083 16.1375 1.46859 -175.998 -88.5975 175.724
lowerback -9.25026 1.34284 1.31255
upperback 3.35014 1.83594 -2.79496
thorax 8.90828 1.04586 -3.41168
lowerneck -1.52112 -1.16171 3.40137
upperneck 20.2243 -3.08398 3.22538
head 6.40366 -1.2526 0.248237
rclavicle 2.5345e-015 1.11319e-014
rhumerus -27.229 5.59742 -90.806
rradius 52.7208
rwrist 20.4155
rhand -26.1514 -34.2051
rfingers 7.12502
rthumb 0.399475 -64.1844
lclavicle 2.5345e-015 1.11319e-014
lhumerus -24.6239 -11.3591 83.4181
lradius 51.0761
lwrist -12.9176
lhand -21.9722 -30.1809
lfingers 7.12502
lthumb 4.43561 -0.247389
rfemur -13.9239 3.67298 12.808
rtibia 41.646
rfoot -33.9228 -11.5798
rtoes 23.3306
lfemur -13.3732 3.0496 -10.7918
ltibia 37.9386
lfoot -27.6433 16.5556
ltoes -30.5689
288
root 12.4086 16.1371 1.46874 -175.712 -88.5919 175.44
lowerback -9.23517 1.34014 1.29804
upperback 3.35151 1.83406 -2.79497
thorax 8.90027 1.04401 -3.40396
lowerneck -1.5562 -1.14512 3.40652
upperneck 20.2441 -3.06268 3.21757
head 6.41591 -1.24143 0.245687
rclavicle -9.39258e-015 -1.66979e-014
rhumerus -27.2083 5.61846 -90.8126
rradius 52.702
rwrist 20.3697
rhand -26.1289 -34.2584
rfingers 7.12502
rthumb 0.421259 -64.2377
lclavicle -9.39258e-015 -1.66979e-014
lhumerus -24.6097 -11.328 83.412
lradius 51.0465
lwrist -12.9459
lhand -21.9417 -30.1407
lfingers 7.12502
lthumb 4.46506 -0.207774
rfemur -13.9349 3.66591 12.8005
rtibia 41.6464
rfoot -33.9122 -11.616
rtoes 22.8738
lfemur -13.3811 3.06111 -10.8013
ltibia 37.9519
lfoot -27.6222 16.5607
ltoes -30.5755
289
root 12.4086 16.1362 1.46921 -174.86 -88.5844 174.591
lowerback -9.2314 1.33034 1.26467
upperback 3.35984 1.82488 -2.79174
thorax 8.9051 1.03761 -3.38321
lowerneck -1.61317 -1.12066 3.4104
upperneck 20.2786 -3.02952 3.19538
head 6.43639 -1.22496 0.239183
rclavicle 5.81445e-015 -1.51076e-014
rhumerus -27.1784 5.66807 -90.8165
rradius 52.6844
rwrist 20.3041
rhand -26.131 -34.3565
rfingers 7.12502
rthumb 0.419252 -64.3358
lclavicle 5.81445e-015 -1.51076e-014
lhumerus -24.586 -11.2721 83.4104
lradius 51.0143
lwrist -12.9601
lhand -21.9346 -30.1071
lfingers 7.12502
lthumb 4.47197 -0.174272
rfemur -13.9489 3.62185 12.775
rtibia 41.6423
rfoot -33.878 -11.6854
rtoes 22.2795
lfemur -13.3901 3.06946 -10.8281
ltibia 37.9715
lfoot -27.6157 16.5633
ltoes -30.5781
290
root 12.4083 16.1353 1.46996 -173.771 -88.575 173.505
lowerback -9.2351 1.31636 1.22438
upperback 3.36887 1.81089 -2.78716
thorax 8.91443 1.02848 -3.35785
lowerneck -1.67022 -1.09306 3.41038
upperneck 20.3177 -2.9914 3.16924
head 6.45833 -1.20664 0.232361
rclavicle 3.8763e-015 -2.94201e-014
rhumerus -27.1537 5.72968 -90.8191
rradius 52.6709
rwrist 20.2516
rhand -26.1487 -34.4835
rfingers 7.12502
rthumb 0.402103 -64.4629
lclavicle 3.8763e-015 -2.94201e-014
lhumerus -24.5671 -11.2026 83.4101
lradius 50.9853
lwrist -12.9714
lhand -21.9518 -30.0803
lfingers 7.12502
lthumb 4.4553 -0.147111
rfemur -13.9637 3.55227 12.7405
rtibia 41.6356
rfoot -33.8334 -11.7679
rtoes 21.6877
lfemur -13.3984 3.07258 -10.8632
ltibia 37.9908
lfoot -27.6212 16.5613
ltoes -30.5452
